<?xml version="1.0" encoding="UTF-8" standalone="no"?>
<!DOCTYPE svg PUBLIC "-//W3C//DTD SVG 1.1//EN"
 "http://www.w3.org/Graphics/SVG/1.1/DTD/svg11.dtd">
<!-- Generated by graphviz version 2.38.0 (20140413.2041)
 -->
<!-- Title: board Pages: 1 -->
<svg width="559pt" height="810pt"
 viewBox="0.00 0.00 559.00 809.50" xmlns="http://www.w3.org/2000/svg" xmlns:xlink="http://www.w3.org/1999/xlink">
<g id="graph0" class="graph" transform="scale(1 1) rotate(0) translate(4 805.5)">
<title>board</title>
<polygon fill="white" stroke="none" points="-4,4 -4,-805.5 555,-805.5 555,4 -4,4"/>
<!-- n00000001 -->
<g id="node1" class="node"><title>n00000001</title>
<polygon fill="#66cd00" stroke="black" points="551,-192.5 387,-192.5 387,-154.5 551,-154.5 551,-192.5"/>
<text text-anchor="middle" x="469" y="-177.3" font-family="Times,serif" font-size="14.00">Intel IPU6 ISYS Capture 0</text>
<text text-anchor="middle" x="469" y="-162.3" font-family="Times,serif" font-size="14.00">/dev/video0</text>
</g>
<!-- n00000002 -->
<g id="node2" class="node"><title>n00000002</title>
<polygon fill="#66cd00" stroke="black" points="551,-395.5 387,-395.5 387,-357.5 551,-357.5 551,-395.5"/>
<text text-anchor="middle" x="469" y="-380.3" font-family="Times,serif" font-size="14.00">Intel IPU6 ISYS Capture 1</text>
<text text-anchor="middle" x="469" y="-365.3" font-family="Times,serif" font-size="14.00">/dev/video1</text>
</g>
<!-- n00000003 -->
<g id="node3" class="node"><title>n00000003</title>
<polygon fill="#66cd00" stroke="black" points="551,-598.5 387,-598.5 387,-560.5 551,-560.5 551,-598.5"/>
<text text-anchor="middle" x="469" y="-583.3" font-family="Times,serif" font-size="14.00">Intel IPU6 ISYS Capture 2</text>
<text text-anchor="middle" x="469" y="-568.3" font-family="Times,serif" font-size="14.00">/dev/video2</text>
</g>
<!-- n00000004 -->
<g id="node4" class="node"><title>n00000004</title>
<polygon fill="#66cd00" stroke="black" points="551,-801.5 387,-801.5 387,-763.5 551,-763.5 551,-801.5"/>
<text text-anchor="middle" x="469" y="-786.3" font-family="Times,serif" font-size="14.00">Intel IPU6 ISYS Capture 3</text>
<text text-anchor="middle" x="469" y="-771.3" font-family="Times,serif" font-size="14.00">/dev/video3</text>
</g>
<!-- n0000007d -->
<g id="node5" class="node"><title>n0000007d</title>
<path fill="#ffb90f" stroke="black" d="M201,-0.5C201,-0.5 339,-0.5 339,-0.5 345,-0.5 351,-6.5 351,-12.5 351,-12.5 351,-172.5 351,-172.5 351,-178.5 345,-184.5 339,-184.5 339,-184.5 201,-184.5 201,-184.5 195,-184.5 189,-178.5 189,-172.5 189,-172.5 189,-12.5 189,-12.5 189,-6.5 195,-0.5 201,-0.5"/>
<text text-anchor="middle" x="200.5" y="-88.8" font-family="Times,serif" font-size="14.00">0</text>
<polyline fill="none" stroke="black" points="212,-0.5 212,-184.5 "/>
<text text-anchor="middle" x="270" y="-96.3" font-family="Times,serif" font-size="14.00">Intel IPU6 CSI2 0</text>
<text text-anchor="middle" x="270" y="-81.3" font-family="Times,serif" font-size="14.00">/dev/v4l&#45;subdev0</text>
<polyline fill="none" stroke="black" points="328,-0.5 328,-184.5 "/>
<text text-anchor="middle" x="339.5" y="-169.3" font-family="Times,serif" font-size="14.00">1</text>
<polyline fill="none" stroke="black" points="328,-161.5 351,-161.5 "/>
<text text-anchor="middle" x="339.5" y="-146.3" font-family="Times,serif" font-size="14.00">2</text>
<polyline fill="none" stroke="black" points="328,-138.5 351,-138.5 "/>
<text text-anchor="middle" x="339.5" y="-123.3" font-family="Times,serif" font-size="14.00">3</text>
<polyline fill="none" stroke="black" points="328,-115.5 351,-115.5 "/>
<text text-anchor="middle" x="339.5" y="-100.3" font-family="Times,serif" font-size="14.00">4</text>
<polyline fill="none" stroke="black" points="328,-92.5 351,-92.5 "/>
<text text-anchor="middle" x="339.5" y="-77.3" font-family="Times,serif" font-size="14.00">5</text>
<polyline fill="none" stroke="black" points="328,-69.5 351,-69.5 "/>
<text text-anchor="middle" x="339.5" y="-54.3" font-family="Times,serif" font-size="14.00">6</text>
<polyline fill="none" stroke="black" points="328,-46.5 351,-46.5 "/>
<text text-anchor="middle" x="339.5" y="-31.3" font-family="Times,serif" font-size="14.00">7</text>
<polyline fill="none" stroke="black" points="328,-23.5 351,-23.5 "/>
<text text-anchor="middle" x="339.5" y="-8.3" font-family="Times,serif" font-size="14.00">8</text>
</g>
<!-- n0000007d&#45;&gt;n00000001 -->
<g id="edge1" class="edge"><title>n0000007d:port1&#45;&gt;n00000001</title>
<path fill="none" stroke="black" stroke-dasharray="5,2" d="M351,-173.5C359.322,-173.5 367.976,-173.5 376.644,-173.5"/>
<polygon fill="black" stroke="black" points="376.807,-177 386.807,-173.5 376.807,-170 376.807,-177"/>
</g>
<!-- n00000087 -->
<g id="node6" class="node"><title>n00000087</title>
<path fill="#ffb90f" stroke="black" d="M201,-203.5C201,-203.5 339,-203.5 339,-203.5 345,-203.5 351,-209.5 351,-215.5 351,-215.5 351,-375.5 351,-375.5 351,-381.5 345,-387.5 339,-387.5 339,-387.5 201,-387.5 201,-387.5 195,-387.5 189,-381.5 189,-375.5 189,-375.5 189,-215.5 189,-215.5 189,-209.5 195,-203.5 201,-203.5"/>
<text text-anchor="middle" x="200.5" y="-291.8" font-family="Times,serif" font-size="14.00">0</text>
<polyline fill="none" stroke="black" points="212,-203.5 212,-387.5 "/>
<text text-anchor="middle" x="270" y="-299.3" font-family="Times,serif" font-size="14.00">Intel IPU6 CSI2 1</text>
<text text-anchor="middle" x="270" y="-284.3" font-family="Times,serif" font-size="14.00">/dev/v4l&#45;subdev1</text>
<polyline fill="none" stroke="black" points="328,-203.5 328,-387.5 "/>
<text text-anchor="middle" x="339.5" y="-372.3" font-family="Times,serif" font-size="14.00">1</text>
<polyline fill="none" stroke="black" points="328,-364.5 351,-364.5 "/>
<text text-anchor="middle" x="339.5" y="-349.3" font-family="Times,serif" font-size="14.00">2</text>
<polyline fill="none" stroke="black" points="328,-341.5 351,-341.5 "/>
<text text-anchor="middle" x="339.5" y="-326.3" font-family="Times,serif" font-size="14.00">3</text>
<polyline fill="none" stroke="black" points="328,-318.5 351,-318.5 "/>
<text text-anchor="middle" x="339.5" y="-303.3" font-family="Times,serif" font-size="14.00">4</text>
<polyline fill="none" stroke="black" points="328,-295.5 351,-295.5 "/>
<text text-anchor="middle" x="339.5" y="-280.3" font-family="Times,serif" font-size="14.00">5</text>
<polyline fill="none" stroke="black" points="328,-272.5 351,-272.5 "/>
<text text-anchor="middle" x="339.5" y="-257.3" font-family="Times,serif" font-size="14.00">6</text>
<polyline fill="none" stroke="black" points="328,-249.5 351,-249.5 "/>
<text text-anchor="middle" x="339.5" y="-234.3" font-family="Times,serif" font-size="14.00">7</text>
<polyline fill="none" stroke="black" points="328,-226.5 351,-226.5 "/>
<text text-anchor="middle" x="339.5" y="-211.3" font-family="Times,serif" font-size="14.00">8</text>
</g>
<!-- n00000087&#45;&gt;n00000002 -->
<g id="edge2" class="edge"><title>n00000087:port1&#45;&gt;n00000002</title>
<path fill="none" stroke="black" stroke-dasharray="5,2" d="M351,-376.5C359.322,-376.5 367.976,-376.5 376.644,-376.5"/>
<polygon fill="black" stroke="black" points="376.807,-380 386.807,-376.5 376.807,-373 376.807,-380"/>
</g>
<!-- n00000091 -->
<g id="node7" class="node"><title>n00000091</title>
<path fill="#ffb90f" stroke="black" d="M201,-406.5C201,-406.5 339,-406.5 339,-406.5 345,-406.5 351,-412.5 351,-418.5 351,-418.5 351,-578.5 351,-578.5 351,-584.5 345,-590.5 339,-590.5 339,-590.5 201,-590.5 201,-590.5 195,-590.5 189,-584.5 189,-578.5 189,-578.5 189,-418.5 189,-418.5 189,-412.5 195,-406.5 201,-406.5"/>
<text text-anchor="middle" x="200.5" y="-494.8" font-family="Times,serif" font-size="14.00">0</text>
<polyline fill="none" stroke="black" points="212,-406.5 212,-590.5 "/>
<text text-anchor="middle" x="270" y="-502.3" font-family="Times,serif" font-size="14.00">Intel IPU6 CSI2 2</text>
<text text-anchor="middle" x="270" y="-487.3" font-family="Times,serif" font-size="14.00">/dev/v4l&#45;subdev2</text>
<polyline fill="none" stroke="black" points="328,-406.5 328,-590.5 "/>
<text text-anchor="middle" x="339.5" y="-575.3" font-family="Times,serif" font-size="14.00">1</text>
<polyline fill="none" stroke="black" points="328,-567.5 351,-567.5 "/>
<text text-anchor="middle" x="339.5" y="-552.3" font-family="Times,serif" font-size="14.00">2</text>
<polyline fill="none" stroke="black" points="328,-544.5 351,-544.5 "/>
<text text-anchor="middle" x="339.5" y="-529.3" font-family="Times,serif" font-size="14.00">3</text>
<polyline fill="none" stroke="black" points="328,-521.5 351,-521.5 "/>
<text text-anchor="middle" x="339.5" y="-506.3" font-family="Times,serif" font-size="14.00">4</text>
<polyline fill="none" stroke="black" points="328,-498.5 351,-498.5 "/>
<text text-anchor="middle" x="339.5" y="-483.3" font-family="Times,serif" font-size="14.00">5</text>
<polyline fill="none" stroke="black" points="328,-475.5 351,-475.5 "/>
<text text-anchor="middle" x="339.5" y="-460.3" font-family="Times,serif" font-size="14.00">6</text>
<polyline fill="none" stroke="black" points="328,-452.5 351,-452.5 "/>
<text text-anchor="middle" x="339.5" y="-437.3" font-family="Times,serif" font-size="14.00">7</text>
<polyline fill="none" stroke="black" points="328,-429.5 351,-429.5 "/>
<text text-anchor="middle" x="339.5" y="-414.3" font-family="Times,serif" font-size="14.00">8</text>
</g>
<!-- n00000091&#45;&gt;n00000003 -->
<g id="edge3" class="edge"><title>n00000091:port1&#45;&gt;n00000003</title>
<path fill="none" stroke="black" d="M351,-579.5C359.322,-579.5 367.976,-579.5 376.644,-579.5"/>
<polygon fill="black" stroke="black" points="376.807,-583 386.807,-579.5 376.807,-576 376.807,-583"/>
</g>
<!-- n0000009b -->
<g id="node8" class="node"><title>n0000009b</title>
<path fill="#ffb90f" stroke="black" d="M201,-609.5C201,-609.5 339,-609.5 339,-609.5 345,-609.5 351,-615.5 351,-621.5 351,-621.5 351,-781.5 351,-781.5 351,-787.5 345,-793.5 339,-793.5 339,-793.5 201,-793.5 201,-793.5 195,-793.5 189,-787.5 189,-781.5 189,-781.5 189,-621.5 189,-621.5 189,-615.5 195,-609.5 201,-609.5"/>
<text text-anchor="middle" x="200.5" y="-697.8" font-family="Times,serif" font-size="14.00">0</text>
<polyline fill="none" stroke="black" points="212,-609.5 212,-793.5 "/>
<text text-anchor="middle" x="270" y="-705.3" font-family="Times,serif" font-size="14.00">Intel IPU6 CSI2 3</text>
<text text-anchor="middle" x="270" y="-690.3" font-family="Times,serif" font-size="14.00">/dev/v4l&#45;subdev3</text>
<polyline fill="none" stroke="black" points="328,-609.5 328,-793.5 "/>
<text text-anchor="middle" x="339.5" y="-778.3" font-family="Times,serif" font-size="14.00">1</text>
<polyline fill="none" stroke="black" points="328,-770.5 351,-770.5 "/>
<text text-anchor="middle" x="339.5" y="-755.3" font-family="Times,serif" font-size="14.00">2</text>
<polyline fill="none" stroke="black" points="328,-747.5 351,-747.5 "/>
<text text-anchor="middle" x="339.5" y="-732.3" font-family="Times,serif" font-size="14.00">3</text>
<polyline fill="none" stroke="black" points="328,-724.5 351,-724.5 "/>
<text text-anchor="middle" x="339.5" y="-709.3" font-family="Times,serif" font-size="14.00">4</text>
<polyline fill="none" stroke="black" points="328,-701.5 351,-701.5 "/>
<text text-anchor="middle" x="339.5" y="-686.3" font-family="Times,serif" font-size="14.00">5</text>
<polyline fill="none" stroke="black" points="328,-678.5 351,-678.5 "/>
<text text-anchor="middle" x="339.5" y="-663.3" font-family="Times,serif" font-size="14.00">6</text>
<polyline fill="none" stroke="black" points="328,-655.5 351,-655.5 "/>
<text text-anchor="middle" x="339.5" y="-640.3" font-family="Times,serif" font-size="14.00">7</text>
<polyline fill="none" stroke="black" points="328,-632.5 351,-632.5 "/>
<text text-anchor="middle" x="339.5" y="-617.3" font-family="Times,serif" font-size="14.00">8</text>
</g>
<!-- n0000009b&#45;&gt;n00000004 -->
<g id="edge4" class="edge"><title>n0000009b:port1&#45;&gt;n00000004</title>
<path fill="none" stroke="black" stroke-dasharray="5,2" d="M351,-782.5C359.322,-782.5 367.976,-782.5 376.644,-782.5"/>
<polygon fill="black" stroke="black" points="376.807,-786 386.807,-782.5 376.807,-779 376.807,-786"/>
</g>
<!-- n00000865 -->
<g id="node9" class="node"><title>n00000865</title>
<path fill="cornflowerblue" stroke="black" d="M12,-479.5C12,-479.5 141,-479.5 141,-479.5 147,-479.5 153,-485.5 153,-491.5 153,-491.5 153,-505.5 153,-505.5 153,-511.5 147,-517.5 141,-517.5 141,-517.5 12,-517.5 12,-517.5 6,-517.5 0,-511.5 0,-505.5 0,-505.5 0,-491.5 0,-491.5 0,-485.5 6,-479.5 12,-479.5"/>
<text text-anchor="middle" x="10" y="-494.8" font-family="Times,serif" font-size="14.00"> </text>
<polyline fill="none" stroke="black" points="20,-479.5 20,-517.5 "/>
<text text-anchor="middle" x="75" y="-502.3" font-family="Times,serif" font-size="14.00">ov01a10 3&#45;0036</text>
<text text-anchor="middle" x="75" y="-487.3" font-family="Times,serif" font-size="14.00">/dev/v4l&#45;subdev4</text>
<polyline fill="none" stroke="black" points="130,-479.5 130,-517.5 "/>
<text text-anchor="middle" x="141.5" y="-494.8" font-family="Times,serif" font-size="14.00">0</text>
</g>
<!-- n00000865&#45;&gt;n00000091 -->
<g id="edge5" class="edge"><title>n00000865:port0&#45;&gt;n00000091:port0</title>
<path fill="none" stroke="black" d="M153,-498.5C165,-498.5 170.25,-498.5 178.875,-498.5"/>
<polygon fill="black" stroke="black" points="179,-502 189,-498.5 179,-495 179,-502"/>
</g>
<!-- n00000866 -->
<!-- n00000866&#45;&gt;n0000007d -->
<!-- n00000867 -->
<!-- n00000867&#45;&gt;n00000087 -->
<!-- n00000868 -->
<!-- n00000868&#45;&gt;n0000009b -->
</g>
</svg>
